PathFileType	4	(X/Y/Z)	Patient4_TMGait_0pt8_01_right_39.trc.trc
DataRate	CameraRate	NumFrames	NumMarkers	Units	OrigDataRate	OrigDataStartFrame	OrigNumFrames
89.743589743590	89.743589743590	4	33	mm	89.743589743590	124	       141
Frame#	Time	Sacral			L.Shoulder			Chest			R.Shoulder			Neck			R.ASIS			L.ASIS			R.Thigh.Superior			R.Thigh.Lateral			R.Thigh.Inferior			R.Patella			L.Thigh.Superior			L.Thigh.Lateral			L.Thigh.Inferior			L.Patella			L.Shank.Superior			L.Shank.Lateral			L.Shank.Inferior			R.Shank.Superior			R.Shank.Lateral			R.Shank.Inferior			R.Heel			R.Midfoot.Superior			R.Midfoot.Lateral			R.Toe			L.Heel			L.Midfoot.Lateral			L.Midfoot.Superior			L.Toe			L.Elbow			L.Wrist			R.Elbow			R.Wrist			
		X1	Y1	Z1	X2	Y2	Z2	X3	Y3	Z3	X4	Y4	Z4	X5	Y5	Z5	X6	Y6	Z6	X7	Y7	Z7	X8	Y8	Z8	X9	Y9	Z9	X10	Y10	Z10	X11	Y11	Z11	X12	Y12	Z12	X13	Y13	Z13	X14	Y14	Z14	X15	Y15	Z15	X16	Y16	Z16	X17	Y17	Z17	X18	Y18	Z18	X19	Y19	Z19	X20	Y20	Z20	X21	Y21	Z21	X22	Y22	Z22	X23	Y23	Z23	X24	Y24	Z24	X25	Y25	Z25	X26	Y26	Z26	X27	Y27	Z27	X28	Y28	Z28	X29	Y29	Z29	X30	Y30	Z30	X31	Y31	Z31	X32	Y32	Z32	X33	Y33	Z33	

124	45.140571428571	884.001626704985	986.075125514946	455.720578250010	1058.200326741467	1424.880864391154	294.740535438589	1153.995826946310	1354.474174648052	459.265752466071	1056.788194731051	1419.652981464357	629.905763349487	1028.225411140370	1478.354263713297	450.404454363206	1106.677233793865	927.324963726127	582.592771296995	1088.547479630898	935.939177551752	303.993035773606	1185.474019978945	753.700954824401	552.592158671883	1138.117756057868	629.917775861128	620.989855298682	1228.493024297735	598.109389920394	542.110377015095	1259.329722327831	514.588981164666	554.855327228614	1098.066009907289	716.434176827695	333.421660578017	975.868380255980	627.657876215030	268.823663054890	1029.901493630618	530.008699615685	332.964035673392	1010.759859907288	462.621022757902	340.976502380775	972.088669126708	398.676391995165	331.942684397413	860.668558951101	303.445606152470	282.919167303270	891.140066243313	184.001476976264	351.559778816991	1245.773765660398	422.907019068356	564.666961631422	1193.019615185108	306.914477455616	623.768586498310	1263.387188463965	223.404529361074	570.517141553578	1170.607803590083	42.048488340598	535.956156348151	1332.719760670020	111.169659024647	580.011641669168	1251.893049724524	40.245679532273	613.154947307791	1455.414034504689	72.560151577744	611.354108584290	745.971764200044	38.892205699971	399.678817844603	812.602492119559	35.121094362151	313.141927346206	899.335940037213	95.520393049715	334.583275963946	1023.318737741879	43.966346177051	292.276601310731	1165.354961194145	1120.957274059907	127.950751538352	1413.317443573346	1155.342960371081	176.556758704271	911.592096777516	1107.944093562783	735.045090502219	859.105636036117	854.049129560887	748.330049912005	
125	45.151714285714	886.356404026028	984.139853495478	458.476070975336	1058.870949857994	1422.886035316001	296.756585797826	1155.113224202235	1353.333763901062	461.437333943079	1057.544674166426	1418.434927911171	631.976246869550	1028.830949778736	1476.539448763882	452.406732107832	1109.440260761199	925.480731130484	585.017020123413	1090.715675949559	934.060989984417	306.613481625554	1188.194707041145	751.306432145933	555.167447607352	1138.677240129556	627.335352097214	621.574258503989	1229.972800171298	595.763443307608	543.724982941663	1259.228695709274	511.352400738118	555.198491623883	1099.824948764142	714.389420511313	334.993570889347	976.879983217076	626.019520276190	271.042992658483	1031.187656281531	527.790131957015	334.458068561666	1011.788045442322	459.475537153925	342.134613658751	970.999546142712	396.350258972537	333.194191502300	857.187959291384	303.988785694584	283.934395043755	884.836134346072	183.494277005026	351.717341625159	1244.876677869845	419.402254577748	564.603127087905	1190.507314930309	303.945754867381	623.203564826959	1259.234417585955	219.720697978509	569.453848656210	1162.669828151902	41.468157634718	534.320809380903	1326.156483388487	106.823632103650	578.394439223430	1243.493604276224	38.699830363614	612.123846901610	1448.072550581299	65.502264985915	610.742706744508	737.084517305768	40.401125935858	399.335799101353	803.807755494428	35.729402611583	313.014477618189	891.106517784347	95.534167563632	334.302077220903	1014.638456356588	43.115891103524	292.095032177824	1166.331812351393	1118.603465695947	130.498802587683	1412.093689022589	1162.736163375627	179.790588320552	908.243354240016	1109.389485193460	736.606998098650	852.856631429140	856.006863550661	749.903345691606	
126	45.162857142857	888.512675754178	982.580248095484	461.227309727376	1059.747717715479	1421.136781436791	298.786176357557	1156.335323638881	1352.417634124352	463.692529151694	1058.397813738221	1417.469417068539	634.119536817243	1029.616906424431	1475.081242497887	454.446377286992	1112.003310758491	924.057120102326	587.597846587886	1096.434914937312	935.584827011588	310.461155254529	1190.989441810340	749.629040563471	557.731716674395	1139.744289227828	625.565811675275	622.397964933093	1231.771750164889	594.156293446974	545.380206726962	1259.694192413644	508.764362015734	555.740883678655	1101.924201042668	712.702984681343	336.794076416791	978.607577259722	624.414651611875	273.401501309557	1033.528543874431	525.701477017168	336.042163067550	1014.000404952249	456.295050812100	343.228970090024	970.815477309162	394.065147495881	334.430015059290	854.473391444929	304.933314778839	284.990752780135	879.073855259878	183.349366044409	351.791531802847	1244.297389534381	416.507197457700	564.660745316985	1188.263086041847	301.781562046626	623.117932282809	1254.781788838849	216.591729362300	568.587952545771	1153.894356712436	41.309261474448	533.232478381599	1318.799264619267	103.129283374845	576.997701268869	1234.408342909316	37.666363806406	611.471762145350	1440.027200951311	59.177750582200	610.140182644150	728.377546940343	42.901074314976	398.902152710667	795.125258026058	36.873794619299	312.835301800574	883.197229546145	95.692321045316	333.885574658989	1005.944573688945	42.175705475229	291.913849048329	1166.672656931216	1115.907880858320	133.287458019524	1410.235829274616	1168.666054252947	183.006435437687	906.107465188285	1110.345814425630	738.076452843913	848.212511408338	857.396883082541	751.543054634456	
127	45.174000000000	890.440965757249	981.465281857293	463.945550553229	1060.837182439681	1419.728850861857	300.809454574093	1157.644233582190	1351.780074915009	466.002428599947	1059.356370138759	1416.837133309879	636.303412081349	1030.576200970585	1474.070256228854	456.489361232966	1114.303975998802	923.129833466800	590.339957904120	1106.707688269928	941.520370881276	315.871754925395	1193.708638386200	748.706877951213	560.266565200913	1141.257382942171	624.647436899928	623.565747330319	1233.718178187896	593.256417514771	547.108822639597	1260.540405474385	506.836671585619	556.618496259105	1104.333563524790	711.466568012583	338.830091498421	981.087890752469	622.901241799556	275.843984224697	1036.988796152662	523.829238028545	337.662255446314	1017.454667647953	453.185026103741	344.172925858309	971.627103793974	391.913113763873	335.568226750284	852.624028242037	306.382489416697	286.041175408046	873.975848297428	183.691002509428	351.750356483149	1243.916464697527	414.254325434071	564.960626857098	1186.220457401590	300.399848976617	623.550406170459	1250.115271326162	214.084198088684	567.997031887966	1144.685382847046	41.445453113420	532.652441904795	1310.906644147608	100.231651305719	575.904548108140	1225.026543622272	37.081498482947	611.165103639217	1431.571437245692	53.942383037451	609.613872921279	719.964964408685	46.642173842762	398.380333336028	786.619779512171	38.730506403519	312.601237786983	875.710807504180	96.054800381571	333.318063239399	997.224080042325	41.150589961918	291.753851493348	1166.298495328012	1112.940623253372	136.340878729782	1407.826501758114	1173.086421219728	186.208894152969	905.249937845531	1110.812631643020	739.488176718048	845.287576793849	858.205721375056	753.214986614773	
